<mxfile host="app.diagrams.net" modified="2024-05-21T06:49:29.941Z" agent="Mozilla/5.0 (Windows NT 10.0; Win64; x64) AppleWebKit/537.36 (KHTML, like Gecko) Chrome/125.0.0.0 Safari/537.36 Edg/125.0.0.0" version="24.4.4" etag="yiXE7UR1hRE7hNks1PQn" type="github">
  <diagram name="第 1 页" id="2TSjbs93XiS6RF9v-P3J">
    <mxGraphModel>
      <root>
        <mxCell id="0" />
        <mxCell id="1" parent="0" />
      </root>
    </mxGraphModel>
  </diagram>
</mxfile>
